<svg id="logosandtypes_com" xmlns="http://www.w3.org/2000/svg" viewBox="0 0 150 150.2"><style>.st1,.st2{fill-rule:evenodd;clip-rule:evenodd;fill:#b1060f}.st2{fill:#9d030f}</style><g id="Layer_3_2_"><g id="Layer_2_1_"><path id="Layer_3" d="M0 .2h150v150H0V.2z" fill="none"/></g></g><g id="netflix"><path class="st1" d="M40.4 10.2s0 125.8.1 125.8c0 0 2.2-.2 4.8-.4 2.6-.3 6.1-.6 7.9-.8 2.7-.2 10.9-.7 11.8-.8.3 0 .4-56.2.4-56.2l-25-67.6z"/><path class="st2" d="M65.4 95.2V80.8l-25-70.6 25 85z"/><path class="st1" d="M85.1 10.3L85 68.9l24.7 67.1h-.2.2c.1-.1 0-125.7 0-125.7H85.1z"/><path class="st2" d="M85 51.8v14.1l23.6 67.1L85 51.8z"/><path d="M40.4 10.2s43.7 123.7 43.8 123.7c0 0 25.4 2.1 25.5 2.1L65.3 10.2H40.4z" fill-rule="evenodd" clip-rule="evenodd" fill="#e50914"/></g></svg>